<svg xmlns="http://www.w3.org/2000/svg" xmlns:xlink="http://www.w3.org/1999/xlink" viewBox="0,0,256,256" width="48px" height="48px"><g fill="none" fill-rule="nonzero" stroke="none" stroke-width="none" stroke-linecap="none" stroke-linejoin="none" stroke-miterlimit="10" stroke-dasharray="" stroke-dashoffset="0" font-family="none" font-weight="none" font-size="none" text-anchor="none" style="mix-blend-mode: normal"><g transform="scale(5.33333,5.33333)"><path d="M40.121,44h-24.242c-2.142,0 -3.879,-1.737 -3.879,-3.879v-24.242c0,-2.142 1.737,-3.879 3.879,-3.879h24.242c2.142,0 3.879,1.737 3.879,3.879v24.242c0,2.142 -1.737,3.879 -3.879,3.879z" fill="#f48fb1" stroke="none" stroke-width="1" stroke-linecap="butt" stroke-linejoin="miter"></path><path d="M29.213,40.5h-17.713c-2.209,0 -4,-1.791 -4,-4v-25c0,-2.209 1.791,-4 4,-4h1.202" fill="none" stroke="#ffffff" stroke-width="3" stroke-linecap="round" stroke-linejoin="round"></path><path d="M19.17,7.5h17.33c2.209,0 4,1.791 4,4v25c0,2.209 -1.791,4 -4,4h-1.5" fill="none" stroke="#ffffff" stroke-width="3" stroke-linecap="round" stroke-linejoin="round"></path><path d="M27,27l4.019,-2.116c0.712,-0.374 0.712,-1.394 0,-1.769l-12.053,-6.344c-0.666,-0.35 -1.466,0.132 -1.466,0.885v12.687c0,0.753 0.8,1.235 1.466,0.885l3.566,-1.877" fill="none" stroke="#ffffff" stroke-width="3" stroke-linecap="round" stroke-linejoin="round"></path></g></g></svg>