<svg xmlns="http://www.w3.org/2000/svg"  viewBox="0 0 48 48" width="48px" height="48px"><path fill="#f48fb1" d="M40.121,44H15.879C13.737,44,12,42.263,12,40.121V15.879C12,13.737,13.737,12,15.879,12h24.242	C42.263,12,44,13.737,44,15.879v24.242C44,42.263,42.263,44,40.121,44z"/><path fill="none" stroke="#18193f" stroke-linecap="round" stroke-linejoin="round" stroke-miterlimit="10" stroke-width="3" d="M29.213,40.5H11.5c-2.209,0-4-1.791-4-4v-25c0-2.209,1.791-4,4-4h1.202"/><path fill="none" stroke="#18193f" stroke-linecap="round" stroke-linejoin="round" stroke-miterlimit="10" stroke-width="3" d="M19.17,7.5H36.5c2.209,0,4,1.791,4,4v25c0,2.209-1.791,4-4,4H35"/><path fill="none" stroke="#18193f" stroke-linecap="round" stroke-linejoin="round" stroke-miterlimit="10" stroke-width="3" d="M27,27	l4.019-2.116c0.712-0.374,0.712-1.394,0-1.769l-12.053-6.344c-0.666-0.35-1.466,0.132-1.466,0.885v12.687	c0,0.753,0.8,1.235,1.466,0.885l3.566-1.877"/></svg>